<?xml version="1.0" encoding="UTF-8"?>
<svg version="1.1" xmlns="http://www.w3.org/2000/svg" width="1024" height="1024">
<path d="M0 0 C337.92 0 675.84 0 1024 0 C1024 337.92 1024 675.84 1024 1024 C686.08 1024 348.16 1024 0 1024 C0 686.08 0 348.16 0 0 Z " fill="#fff" transform="translate(0,0)"/>
<path d="M0 0 C0.98217499 -0.00100708 1.96434998 -0.00201416 2.97628784 -0.00305176 C26.29630071 0.01301651 49.23431451 1.47352309 72.02978516 6.71728516 C74.54709933 7.27424921 77.07103687 7.75782001 79.60546875 8.23046875 C91.58890256 10.53584293 103.0690238 13.88337201 114.625 17.75 C115.67365738 18.09987473 115.67365738 18.09987473 116.74349976 18.45681763 C168.91142779 35.96077782 217.41429753 65.40948469 255.96484375 104.8125 C257.37642842 106.19038636 258.90653923 107.44359437 260.4375 108.6875 C263.53168888 111.330453 266.04000455 114.14265241 268.66796875 117.234375 C270.26827503 119.05724043 271.92619775 120.71038022 273.6875 122.375 C278.66489895 127.27445311 282.79658497 132.91049258 287.04101562 138.43896484 C288.35424898 140.14203565 289.68172232 141.83262736 291.015625 143.51953125 C324.37196693 185.89180601 347.96582466 237.13938473 358.93652344 289.8737793 C359.43560706 292.24102144 359.9689876 294.59855598 360.5078125 296.95703125 C361.32109117 300.60119144 361.93733268 304.23536866 362.4375 307.9375 C362.92641102 311.52926367 363.41688543 315.11713384 363.97265625 318.69921875 C366.2423027 333.44351457 366.67273009 348.23328138 366.6875 363.125 C366.68883942 363.93560883 366.69017883 364.74621765 366.69155884 365.58139038 C366.68373913 387.71736341 365.5845972 410.43756938 360.89404297 432.12792969 C360.35459464 434.63535477 359.85257691 437.14946192 359.34765625 439.6640625 C356.90441486 451.58895606 353.88892329 463.21615937 350.20361328 474.81494141 C349.42462086 477.29093579 348.67620081 479.77458984 347.93359375 482.26171875 C345.41417555 490.61160279 342.68001145 498.54625765 338.83203125 506.390625 C337.56433146 508.98994222 336.4169279 511.61940099 335.28833008 514.28125 C329.29580066 528.1474644 322.43906819 541.4438648 314.4375 554.25 C313.99792969 554.95608398 313.55835938 555.66216797 313.10546875 556.38964844 C299.27148576 578.48614721 283.17817216 598.73369545 265.4375 617.8125 C264.85556885 618.43842041 264.2736377 619.06434082 263.67407227 619.70922852 C257.22929291 626.60159974 250.5967516 633.10352058 243.4375 639.25 C242.41743992 640.14523112 241.39795192 641.04111434 240.37890625 641.9375 C221.34397861 658.59133525 200.52921377 672.94825376 178.4375 685.25 C177.59654785 685.71905762 176.7555957 686.18811523 175.88916016 686.67138672 C157.15549048 697.01531902 137.57696405 705.07238868 117.4375 712.25 C116.70917969 712.51151855 115.98085938 712.77303711 115.23046875 713.04248047 C88.53038949 722.53766461 60.34706404 727.54975864 32.1484375 729.890625 C28.70133733 730.12584306 28.70133733 730.12584306 26.46931458 730.76338196 C24.31630775 731.27902545 22.42922255 731.38357352 20.2175293 731.39526367 C19.390354 731.40154785 18.56317871 731.40783203 17.7109375 731.41430664 C16.82019531 731.41551514 15.92945313 731.41672363 15.01171875 731.41796875 C14.08012939 731.4221582 13.14854004 731.42634766 12.1887207 731.43066406 C9.16743772 731.44045549 6.14629624 731.44045343 3.125 731.4375 C2.10129303 731.43722809 1.07758606 731.43695618 0.02285767 731.43667603 C-18.79073296 731.41355237 -37.15566662 730.83978051 -55.6328125 727.0234375 C-59.17749821 726.29581575 -62.73336302 725.77812592 -66.31591797 725.27563477 C-78.02944053 723.60554739 -89.21677417 720.55289044 -100.5625 717.25 C-102.15732104 716.7960625 -103.7523622 716.34289737 -105.34765625 715.890625 C-140.91162138 705.69331979 -175.17646594 689.35477532 -205.5625 668.25 C-207.18865234 667.13044922 -207.18865234 667.13044922 -208.84765625 665.98828125 C-221.61950617 657.096487 -233.60857067 647.27364443 -244.9765625 636.65234375 C-247.09075441 634.68825308 -249.2353545 632.80049651 -251.4375 630.9375 C-260.43418231 623.12905875 -268.97939707 614.43438923 -276.5625 605.25 C-277.19671875 604.49332031 -277.8309375 603.73664062 -278.484375 602.95703125 C-280.87203819 600.07702145 -283.22122328 597.16766765 -285.5625 594.25 C-286.07731934 593.61304199 -286.59213867 592.97608398 -287.12255859 592.31982422 C-296.41576922 580.78276911 -304.76049655 568.84112204 -312.5625 556.25 C-313.23490723 555.16984619 -313.23490723 555.16984619 -313.92089844 554.06787109 C-325.51317679 535.31049412 -334.58621852 515.58276845 -342.48535156 495.02148438 C-343.50379412 492.40104921 -344.56637332 489.80268164 -345.63671875 487.203125 C-347.73115698 481.97558979 -349.37822805 476.65844095 -350.9375 471.25 C-351.23495117 470.21891113 -351.53240234 469.18782227 -351.83886719 468.12548828 C-357.24306325 449.05574012 -361.41780268 429.95985861 -363.5625 410.25 C-363.64228088 409.58128876 -363.72206177 408.91257751 -363.80426025 408.22360229 C-365.48008846 394.15558673 -365.96427279 380.22395348 -365.9375 366.0625 C-365.93695618 364.97183228 -365.93641235 363.88116455 -365.93585205 362.75744629 C-365.89297618 343.95174731 -364.75825678 325.79408527 -361.5625 307.25 C-361.34287598 305.96270996 -361.12325195 304.67541992 -360.89697266 303.34912109 C-351.24693463 248.3650757 -329.284509 194.92656554 -295.5625 150.25 C-295.00320801 149.50427734 -294.44391602 148.75855469 -293.86767578 147.99023438 C-287.26053272 139.21959371 -280.46659965 130.76173345 -272.93359375 122.76953125 C-270.95039521 120.6621786 -269.05667086 118.51985825 -267.1875 116.3125 C-260.242579 108.31328978 -252.56558426 100.74408997 -244.484375 93.8984375 C-243.11533043 92.72417569 -241.7741349 91.51711245 -240.453125 90.2890625 C-223.43932646 74.47422292 -203.75866614 60.69142715 -183.5625 49.25 C-182.7571582 48.79125488 -181.95181641 48.33250977 -181.12207031 47.85986328 C-138.35302895 23.63152887 -92.9145072 8.76881783 -44.17431641 2.63549805 C-41.66007675 2.315407 -41.66007675 2.315407 -39.64379883 1.73657227 C-27.14449353 -1.18555272 -12.76413214 0.00915426 0 0 Z " fill="#fff" transform="translate(511.5625,143.75)"/>
<path d="M0 0 C0.98217499 -0.00100708 1.96434998 -0.00201416 2.97628784 -0.00305176 C26.29630071 0.01301651 49.23431451 1.47352309 72.02978516 6.71728516 C74.54709933 7.27424921 77.07103687 7.75782001 79.60546875 8.23046875 C91.58890256 10.53584293 103.0690238 13.88337201 114.625 17.75 C115.67365738 18.09987473 115.67365738 18.09987473 116.74349976 18.45681763 C168.91142779 35.96077782 217.41429753 65.40948469 255.96484375 104.8125 C257.37642842 106.19038636 258.90653923 107.44359437 260.4375 108.6875 C263.53168888 111.330453 266.04000455 114.14265241 268.66796875 117.234375 C270.26827503 119.05724043 271.92619775 120.71038022 273.6875 122.375 C278.66489895 127.27445311 282.79658497 132.91049258 287.04101562 138.43896484 C288.35424898 140.14203565 289.68172232 141.83262736 291.015625 143.51953125 C324.37196693 185.89180601 347.96582466 237.13938473 358.93652344 289.8737793 C359.43560706 292.24102144 359.9689876 294.59855598 360.5078125 296.95703125 C361.32109117 300.60119144 361.93733268 304.23536866 362.4375 307.9375 C362.92641102 311.52926367 363.41688543 315.11713384 363.97265625 318.69921875 C366.2423027 333.44351457 366.67273009 348.23328138 366.6875 363.125 C366.68883942 363.93560883 366.69017883 364.74621765 366.69155884 365.58139038 C366.68373913 387.71736341 365.5845972 410.43756938 360.89404297 432.12792969 C360.35459464 434.63535477 359.85257691 437.14946192 359.34765625 439.6640625 C356.90441486 451.58895606 353.88892329 463.21615937 350.20361328 474.81494141 C349.42462086 477.29093579 348.67620081 479.77458984 347.93359375 482.26171875 C345.41417555 490.61160279 342.68001145 498.54625765 338.83203125 506.390625 C337.56433146 508.98994222 336.4169279 511.61940099 335.28833008 514.28125 C329.29580066 528.1474644 322.43906819 541.4438648 314.4375 554.25 C313.99792969 554.95608398 313.55835938 555.66216797 313.10546875 556.38964844 C299.27148576 578.48614721 283.17817216 598.73369545 265.4375 617.8125 C264.85556885 618.43842041 264.2736377 619.06434082 263.67407227 619.70922852 C257.22929291 626.60159974 250.5967516 633.10352058 243.4375 639.25 C242.41743992 640.14523112 241.39795192 641.04111434 240.37890625 641.9375 C221.34397861 658.59133525 200.52921377 672.94825376 178.4375 685.25 C177.59654785 685.71905762 176.7555957 686.18811523 175.88916016 686.67138672 C157.15549048 697.01531902 137.57696405 705.07238868 117.4375 712.25 C116.70917969 712.51151855 115.98085938 712.77303711 115.23046875 713.04248047 C88.53038949 722.53766461 60.34706404 727.54975864 32.1484375 729.890625 C28.70133733 730.12584306 28.70133733 730.12584306 26.46931458 730.76338196 C24.31630775 731.27902545 22.42922255 731.38357352 20.2175293 731.39526367 C19.390354 731.40154785 18.56317871 731.40783203 17.7109375 731.41430664 C16.82019531 731.41551514 15.92945313 731.41672363 15.01171875 731.41796875 C14.08012939 731.4221582 13.14854004 731.42634766 12.1887207 731.43066406 C9.16743772 731.44045549 6.14629624 731.44045343 3.125 731.4375 C2.10129303 731.43722809 1.07758606 731.43695618 0.02285767 731.43667603 C-18.79073296 731.41355237 -37.15566662 730.83978051 -55.6328125 727.0234375 C-59.17749821 726.29581575 -62.73336302 725.77812592 -66.31591797 725.27563477 C-78.02944053 723.60554739 -89.21677417 720.55289044 -100.5625 717.25 C-102.15732104 716.7960625 -103.7523622 716.34289737 -105.34765625 715.890625 C-140.91162138 705.69331979 -175.17646594 689.35477532 -205.5625 668.25 C-207.18865234 667.13044922 -207.18865234 667.13044922 -208.84765625 665.98828125 C-221.61950617 657.096487 -233.60857067 647.27364443 -244.9765625 636.65234375 C-247.09075441 634.68825308 -249.2353545 632.80049651 -251.4375 630.9375 C-260.43418231 623.12905875 -268.97939707 614.43438923 -276.5625 605.25 C-277.19671875 604.49332031 -277.8309375 603.73664062 -278.484375 602.95703125 C-280.87203819 600.07702145 -283.22122328 597.16766765 -285.5625 594.25 C-286.07731934 593.61304199 -286.59213867 592.97608398 -287.12255859 592.31982422 C-296.41576922 580.78276911 -304.76049655 568.84112204 -312.5625 556.25 C-313.23490723 555.16984619 -313.23490723 555.16984619 -313.92089844 554.06787109 C-325.51317679 535.31049412 -334.58621852 515.58276845 -342.48535156 495.02148438 C-343.50379412 492.40104921 -344.56637332 489.80268164 -345.63671875 487.203125 C-347.73115698 481.97558979 -349.37822805 476.65844095 -350.9375 471.25 C-351.23495117 470.21891113 -351.53240234 469.18782227 -351.83886719 468.12548828 C-357.24306325 449.05574012 -361.41780268 429.95985861 -363.5625 410.25 C-363.64228088 409.58128876 -363.72206177 408.91257751 -363.80426025 408.22360229 C-365.48008846 394.15558673 -365.96427279 380.22395348 -365.9375 366.0625 C-365.93695618 364.97183228 -365.93641235 363.88116455 -365.93585205 362.75744629 C-365.89297618 343.95174731 -364.75825678 325.79408527 -361.5625 307.25 C-361.34287598 305.96270996 -361.12325195 304.67541992 -360.89697266 303.34912109 C-351.24693463 248.3650757 -329.284509 194.92656554 -295.5625 150.25 C-295.00320801 149.50427734 -294.44391602 148.75855469 -293.86767578 147.99023438 C-287.26053272 139.21959371 -280.46659965 130.76173345 -272.93359375 122.76953125 C-270.95039521 120.6621786 -269.05667086 118.51985825 -267.1875 116.3125 C-260.242579 108.31328978 -252.56558426 100.74408997 -244.484375 93.8984375 C-243.11533043 92.72417569 -241.7741349 91.51711245 -240.453125 90.2890625 C-223.43932646 74.47422292 -203.75866614 60.69142715 -183.5625 49.25 C-182.7571582 48.79125488 -181.95181641 48.33250977 -181.12207031 47.85986328 C-138.35302895 23.63152887 -92.9145072 8.76881783 -44.17431641 2.63549805 C-41.66007675 2.315407 -41.66007675 2.315407 -39.64379883 1.73657227 C-27.14449353 -1.18555272 -12.76413214 0.00915426 0 0 Z M-38.5625 57.25 C-39.33126465 57.34651855 -40.1000293 57.44303711 -40.89208984 57.54248047 C-59.9354218 59.99695437 -78.71418454 64.51103697 -97 70.3125 C-97.99918457 70.62856201 -98.99836914 70.94462402 -100.02783203 71.27026367 C-105.90918871 73.19793737 -111.50911392 75.47294648 -117.10498047 78.11767578 C-119.45772182 79.20172251 -121.82575355 80.1517124 -124.25 81.0625 C-154.9260869 93.21717594 -183.41023636 112.99282215 -207.5625 135.25 C-208.32433594 135.9203125 -209.08617187 136.590625 -209.87109375 137.28125 C-221.34970912 147.38393939 -232.22116059 158.12539372 -241.5625 170.25 C-242.34753906 171.24128906 -243.13257813 172.23257813 -243.94140625 173.25390625 C-254.64822287 186.84470678 -264.1436477 201.1382843 -272.5625 216.25 C-273.03300781 217.08853516 -273.50351562 217.92707031 -273.98828125 218.79101562 C-285.18684091 238.92773965 -294.6188304 260.36131476 -299.98242188 282.83496094 C-300.6435102 285.58726973 -301.34681327 288.3276656 -302.046875 291.0703125 C-308.18886854 315.68018555 -310.92373481 339.57662376 -310.9375 364.875 C-310.93949402 365.83901733 -310.94148804 366.80303467 -310.94354248 367.79626465 C-310.94043172 381.06110372 -310.15145381 394.08313255 -308.5625 407.25 C-308.44368973 408.28478989 -308.44368973 408.28478989 -308.32247925 409.34048462 C-302.70031049 458.12664237 -282.72993037 506.86112237 -253.5625 546.25 C-252.9449585 547.09062988 -252.9449585 547.09062988 -252.31494141 547.94824219 C-249.48105271 551.78437351 -246.54859021 555.53158188 -243.5625 559.25 C-242.77746094 560.24128906 -241.99242187 561.23257812 -241.18359375 562.25390625 C-234.17276033 570.87009941 -226.32717143 578.69743827 -218.5 586.5625 C-217.66819214 587.4022084 -217.66819214 587.4022084 -216.81958008 588.25888062 C-209.73878557 595.3915553 -202.49906836 602.05781912 -194.5625 608.25 C-193.55521851 609.04627808 -193.55521851 609.04627808 -192.52758789 609.85864258 C-151.83231871 641.73416854 -103.63598141 663.74689622 -52.5625 672.25 C-51.67272461 672.40243164 -50.78294922 672.55486328 -49.86621094 672.71191406 C-33.19981827 675.42232495 -16.52899943 675.54005134 0.3125 675.5625 C1.93866745 675.56787781 1.93866745 675.56787781 3.59768677 675.57336426 C59.9116922 675.67343168 114.17737775 660.35767583 162.4375 631.25 C163.10507324 630.8478125 163.77264648 630.445625 164.46044922 630.03125 C194.15233521 611.95724595 223.35026937 587.0157749 244.06884766 559.07177734 C245.5406314 557.1127245 247.05273758 555.19021064 248.57421875 553.26953125 C266.8431962 530.09527215 281.33936533 504.16194167 291.59423828 476.47875977 C292.50998057 474.05843221 293.48746633 471.66788995 294.46875 469.2734375 C303.42253298 446.94910137 308.31184959 421.90150842 310.11328125 397.99609375 C310.4375 394.25 310.4375 394.25 310.94769287 392.30157471 C311.48922857 390.03333302 311.57846491 388.00979864 311.59863281 385.67871094 C311.60824036 384.77546082 311.6178479 383.87221069 311.62774658 382.94158936 C311.63199646 381.96570862 311.63624634 380.98982788 311.640625 379.984375 C311.64632507 378.95934875 311.65202515 377.93432251 311.65789795 376.87823486 C311.66735301 374.6960147 311.67388393 372.51378022 311.67773438 370.33154297 C311.68726132 367.08142689 311.71820095 363.83199395 311.75 360.58203125 C311.84574551 341.80204115 310.16215637 323.29335884 306.0625 304.9375 C305.84682373 303.94717773 305.63114746 302.95685547 305.40893555 301.93652344 C304.76805051 299.03702606 304.10686564 296.14303841 303.4375 293.25 C303.25493652 292.44320801 303.07237305 291.63641602 302.88427734 290.80517578 C298.23281759 270.56295063 291.33287494 250.33761887 281.40527344 232.06982422 C280.0143865 229.4543673 278.73471944 226.78796479 277.44189453 224.12304688 C273.56709285 216.17376972 269.243598 208.68191486 264.4375 201.25 C263.83550781 200.30125 263.23351562 199.3525 262.61328125 198.375 C257.19400094 190.01317546 251.1336384 182.16749732 245.01464844 174.31054688 C243.91482417 172.87362477 242.83623642 171.42030569 241.77441406 169.95507812 C241.24299805 169.22224609 240.71158203 168.48941406 240.1640625 167.734375 C239.68791504 167.06631836 239.21176758 166.39826172 238.72119141 165.70996094 C238.29757324 165.22817383 237.87395508 164.74638672 237.4375 164.25 C236.7775 164.25 236.1175 164.25 235.4375 164.25 C235.04111328 163.36054688 235.04111328 163.36054688 234.63671875 162.453125 C233.39379575 160.16970946 232.13348354 158.77573277 230.25 157 C226.96191905 153.82837192 224.01556236 150.47490153 221.11328125 146.94921875 C219.34240218 145.15357214 217.74154558 144.23888231 215.4375 143.25 C215.4375 142.59 215.4375 141.93 215.4375 141.25 C214.12863189 139.84698563 214.12863189 139.84698563 212.3125 138.375 C209.66100843 136.13143021 207.017282 133.88624166 204.421875 131.578125 C191.08669993 119.80116852 176.5882944 109.55456395 161.4375 100.25 C160.80585937 99.85748047 160.17421875 99.46496094 159.5234375 99.06054688 C142.68678854 88.64493365 125.0915808 80.51136934 106.41821289 73.98095703 C104.59551984 73.30831522 102.81214771 72.5315607 101.03515625 71.74609375 C96.52615298 69.87101421 91.94932888 68.55858759 87.25 67.25 C86.38052734 67.0025 85.51105469 66.755 84.61523438 66.5 C81.89386493 65.73217791 79.16759429 64.98618109 76.4375 64.25 C75.48423828 63.99162354 74.53097656 63.73324707 73.54882812 63.46704102 C66.19089508 61.54339443 58.83978028 60.2481844 51.3125 59.1875 C50.11874756 59.01831055 48.92499512 58.84912109 47.69506836 58.67480469 C45.32667742 58.3425674 42.9577926 58.01382785 40.58837891 57.68896484 C38.03713694 57.33353845 35.49360448 56.95120328 32.94921875 56.55078125 C9.71445885 53.31032512 -15.35596624 54.18806007 -38.5625 57.25 Z " fill="#427c57" transform="translate(511.5625,143.75)"/>
<path d="M0 0 C4.31279406 1.92601273 6.22069481 4.21705682 9 8 C9 8.99 9 9.98 9 11 C7.0859375 12.8046875 7.0859375 12.8046875 4.375 14.875 C-0.29444428 18.56013983 -4.67845477 22.41405673 -9 26.5 C-13.90454464 31.11467637 -18.91730239 35.48954534 -24.171875 39.70703125 C-29.88920321 44.34248935 -35.42948802 49.19003224 -41 54 C-41.63550781 54.54769043 -42.27101563 55.09538086 -42.92578125 55.65966797 C-49.08443255 60.96826495 -55.23544204 66.27789427 -61.25 71.75 C-65.46604126 75.57515002 -69.84596009 79.16090422 -74.26953125 82.7421875 C-77.83475183 85.69025259 -81.2571218 88.77920163 -84.6796875 91.890625 C-90.59574872 97.26886247 -96.68599043 102.43831018 -102.79345703 107.59667969 C-111.9445765 115.3280241 -121.08046394 123.0652033 -129.9140625 131.16015625 C-132 133 -132 133 -134.09625244 134.00276184 C-137.28753966 137.35076908 -136.56931535 141.34842922 -136.54589844 145.7956543 C-136.55629276 146.81697103 -136.56668709 147.83828775 -136.57739639 148.89055347 C-136.60657808 152.20194277 -136.60846546 155.51271341 -136.609375 158.82421875 C-136.62336516 160.86642749 -136.63914058 162.90862482 -136.65673828 164.95080566 C-136.70948586 172.52958398 -136.72763015 180.10857114 -136.75 187.6875 C-136.8325 204.620625 -136.915 221.55375 -137 239 C-79.25 239 -21.5 239 38 239 C38 243.62 38 248.24 38 253 C-19.75 253 -77.5 253 -137 253 C-137.04125 269.974375 -137.0825 286.94875 -137.125 304.4375 C-137.16383301 309.78509521 -137.20266602 315.13269043 -137.24267578 320.64233398 C-137.22950494 325.46152656 -137.22950494 325.46152656 -137.20309448 330.28065491 C-137.19771509 332.41695848 -137.21191533 334.55336866 -137.24191284 336.68946838 C-138.04588929 349.15927405 -138.04588929 349.15927405 -133.79664612 360.37471008 C-131.29828246 362.6518988 -128.93306162 364.34123732 -126 366 C-125.03449219 366.80050781 -124.06898438 367.60101562 -123.07421875 368.42578125 C-122.28660156 369.04839844 -121.49898437 369.67101562 -120.6875 370.3125 C-115.87414563 374.20255931 -111.3523855 378.32871834 -106.83886719 382.55566406 C-102.62606859 386.47878593 -98.23604648 390.11896414 -93.74609375 393.72265625 C-90.20321701 396.66077451 -86.84558228 399.78231178 -83.47802734 402.91650391 C-80.26683127 405.88730066 -76.97363159 408.69968321 -73.5625 411.4375 C-68.78298078 415.28174639 -64.30679656 419.37089045 -59.83398438 423.56054688 C-56.50862723 426.65765465 -53.11289193 429.59614376 -49.5625 432.4375 C-45.18747345 435.94643687 -41.07984341 439.65849227 -37 443.5 C-32.02057262 448.1875928 -26.91819313 452.61232481 -21.578125 456.890625 C-18.9757371 459.01985146 -16.48424498 461.23449357 -14 463.5 C-9.64512928 467.46715568 -5.14019585 471.20768944 -0.5625 474.9140625 C2.67739086 477.55141268 5.84317799 480.26408759 9 483 C7.52670958 488.00918744 4.72484762 490.51807722 1 494 C-2.71429203 492.37278635 -5.61641051 490.05329514 -8.75 487.5 C-9.73484375 486.7059375 -10.7196875 485.911875 -11.734375 485.09375 C-12.48203125 484.4028125 -13.2296875 483.711875 -14 483 C-14 482.34 -14 481.68 -14 481 C-14.56589844 480.75378906 -15.13179687 480.50757813 -15.71484375 480.25390625 C-18.39248258 478.78463776 -20.33043612 477.02247565 -22.5625 474.9375 C-26.10168226 471.68892508 -29.69560168 468.57531784 -33.4375 465.5625 C-38.21428509 461.69941783 -42.73946882 457.62088565 -47.2578125 453.4609375 C-49.90015883 451.08960105 -52.60694167 448.84747003 -55.375 446.625 C-60.1714071 442.75781137 -64.6704146 438.65019284 -69.16357422 434.44189453 C-72.51081785 431.32460664 -75.92995906 428.36433518 -79.5 425.5 C-83.66667943 422.1569665 -87.60406122 418.64872293 -91.5 415 C-97.98722295 408.92832869 -104.71848968 403.23491891 -111.8125 397.875 C-112.534375 397.25625 -113.25625 396.6375 -114 396 C-114 395.34 -114 394.68 -114 394 C-114.59167969 393.72599365 -115.18335938 393.4519873 -115.79296875 393.16967773 C-117.91795501 392.04348203 -119.50979358 390.86440667 -121.3125 389.28515625 C-122.21355469 388.50301758 -122.21355469 388.50301758 -123.1328125 387.70507812 C-123.74898437 387.16302734 -124.36515625 386.62097656 -125 386.0625 C-126.22818734 384.98976315 -127.45732824 383.91811687 -128.6875 382.84765625 C-129.22761719 382.37336182 -129.76773438 381.89906738 -130.32421875 381.41040039 C-132.15734674 379.86757108 -134.08322262 378.43758303 -136 377 C-136.33 414.95 -136.66 452.9 -137 492 C-141.62 492 -146.24 492 -151 492 C-151 449.1 -151 406.2 -151 362 C-152.32 361.34 -153.64 360.68 -155 360 C-156.78808847 358.48123541 -158.53450727 356.91280964 -160.25 355.3125 C-163.46649205 352.3348986 -166.68574181 349.36916153 -170 346.5 C-173.15558345 343.76216181 -176.23703636 340.95251254 -179.3125 338.125 C-182.93523905 334.81663086 -186.61692891 331.63987642 -190.4375 328.5625 C-194.9739673 324.90364231 -199.258661 321.05131037 -203.52148438 317.08398438 C-206.73281228 314.1129881 -210.02618789 311.30046168 -213.4375 308.5625 C-218.21701922 304.71825361 -222.69320344 300.62910955 -227.16601562 296.43945312 C-230.49137277 293.34234535 -233.88710807 290.40385624 -237.4375 287.5625 C-243.14929226 282.97803516 -248.4493027 278.00501321 -253.7890625 273 C-258.46483208 268.61832095 -263.29038167 264.43457768 -268.1953125 260.3125 C-268.77015381 259.82861816 -269.34499512 259.34473633 -269.93725586 258.84619141 C-271.07140675 257.89286553 -272.20751974 256.94186711 -273.34594727 255.99365234 C-276.74107042 253.14499564 -279.9090616 250.17695709 -283 247 C-281.62803835 243.8376284 -280.1434878 242.0063782 -277.5 239.8125 C-273.28865348 236.26326646 -269.23958736 232.56256914 -265.19921875 228.8203125 C-263 227 -263 227 -260 226 C-260 225.34 -260 224.68 -260 224 C-258.70703125 222.66015625 -258.70703125 222.66015625 -256.8125 221.0625 C-256.07773437 220.43730469 -255.34296875 219.81210937 -254.5859375 219.16796875 C-253.73257812 218.45253906 -252.87921875 217.73710937 -252 217 C-250.51648476 215.74640963 -249.03299569 214.49278808 -247.55004883 213.23852539 C-246.45662433 212.31395676 -245.36269513 211.38998474 -244.26831055 210.46655273 C-238.09974389 205.25549493 -232.00582788 199.95924022 -225.91162109 194.66162109 C-222.75539096 191.91815975 -219.59684376 189.17737475 -216.4375 186.4375 C-215.51118774 185.6338501 -215.51118774 185.6338501 -214.56616211 184.81396484 C-209.70529861 180.60091921 -204.81636992 176.42136692 -199.92431641 172.24462891 C-196.50609717 169.31737077 -193.14116832 166.34190319 -189.8125 163.3125 C-186.4991692 160.30185521 -183.11058071 157.43434822 -179.625 154.625 C-174.09222051 150.1535153 -168.91194058 145.38444793 -163.75752068 140.48619843 C-162 139 -162 139 -159.54168892 137.42108917 C-154.12521515 133.77590163 -154.12521515 133.77590163 -151.07416916 128.19641113 C-150.73022136 124.8148978 -150.69677836 121.55652229 -150.77294922 118.15820312 C-150.75612846 116.25450455 -150.75612846 116.25450455 -150.7389679 114.31234741 C-150.70952186 110.85317334 -150.7411046 107.39699618 -150.78413153 103.93806648 C-150.81865392 100.31583587 -150.79639375 96.69395094 -150.78030396 93.07165527 C-150.758431 86.22201893 -150.78720095 79.37358084 -150.834427 72.52411032 C-150.88573414 64.72230207 -150.88019006 56.92085285 -150.87000632 49.11892033 C-150.85033606 33.07881094 -150.90363423 17.03983687 -151 1 C-146.38 1 -141.76 1 -137 1 C-136.67 38.95 -136.34 76.9 -136 116 C-122.69073848 105.11870813 -122.69073848 105.11870813 -110.00390625 93.6953125 C-108 92 -108 92 -106 92 C-106 91.34 -106 90.68 -106 90 C-101.52941176 86 -101.52941176 86 -99 86 C-99 85.34 -99 84.68 -99 84 C-97.42713316 82.58561594 -95.78860004 81.24395599 -94.125 79.9375 C-90.31164438 76.88974135 -86.60191191 73.79499659 -83 70.5 C-79.58260628 67.38541332 -76.0947765 64.4081338 -72.5 61.5 C-67.97544817 57.83696368 -63.62720397 54.02473089 -59.3203125 50.109375 C-53.40237364 44.72943058 -47.31149299 39.5564578 -41.19995117 34.39892578 C-37.11689955 30.95153437 -33.05393294 27.48156655 -29 24 C-8.71317846 6.5967992 -8.71317846 6.5967992 0 0 Z " fill="#427c57" transform="translate(653,265)"/>
<path d="M0 0 C0.95135834 0.15625854 0.95135834 0.15625854 1.92193604 0.31567383 C20.00456555 3.30338556 37.76988581 6.71754635 54.95996094 13.2434082 C56.96489561 13.98698079 58.97991357 14.68118836 61.0078125 15.359375 C69.20852305 18.11532722 76.8290317 21.22225722 84.50390625 25.23828125 C87.480365 26.73815041 90.47174997 28.05899957 93.55395508 29.32250977 C101.18575974 32.46963584 108.27013734 36.29808375 115.375 40.5 C116.27798828 41.03383301 117.18097656 41.56766602 118.11132812 42.11767578 C124.26819275 45.82060298 130.15266111 49.82928572 136 54 C137.14581003 54.79488268 138.29277934 55.58809949 139.44140625 56.37890625 C161.90473709 72.09480354 183.41577716 90.89893259 201 112 C201.71929688 112.83015625 202.43859375 113.6603125 203.1796875 114.515625 C229.70389934 145.53115706 251.8896674 183.2616709 263.29150391 222.60620117 C263.98784778 224.95894125 264.74981971 227.27851297 265.5390625 229.6015625 C269.60151731 241.67270585 272.33714118 254.05718262 274.6875 266.5625 C274.88972168 267.62452637 275.09194336 268.68655273 275.30029297 269.78076172 C278.32588337 286.4101724 279.32699816 302.67520111 279.26074219 319.56665039 C279.25004838 322.79788115 279.26068819 326.02855189 279.2734375 329.25976562 C279.28832247 348.19227956 277.82133944 366.60310712 274.1875 385.1875 C274.05550201 385.87233459 273.92350403 386.55716919 273.7875061 387.26275635 C271.711782 398.00788234 269.40096783 408.58865695 266 419 C265.68691895 419.96534668 265.37383789 420.93069336 265.05126953 421.92529297 C257.43063357 445.17800271 248.15692635 466.76336928 236 488 C235.5978125 488.70882324 235.195625 489.41764648 234.78125 490.14794922 C223.45672572 510.01010313 209.42400379 528.02937181 193.96875 544.83984375 C191.36871615 547.69265867 188.88560263 550.64039024 186.41015625 553.6015625 C185 555 185 555 183 555 C183 555.66 183 556.32 183 557 C182.34 557 181.68 557 181 557 C181 557.66 181 558.32 181 559 C179.63671875 560.375 179.63671875 560.375 177.6875 562 C174.33697623 564.84002365 171.09076071 567.75815152 167.875 570.75 C152.69420528 584.56975795 135.85211808 596.17182278 118.24462891 606.65576172 C116.69377519 607.58451966 115.14954101 608.52438888 113.61083984 609.47314453 C107.61018825 613.15157352 101.48488391 616.36389241 95.125 619.375 C94.12106201 619.85050293 93.11712402 620.32600586 92.08276367 620.81591797 C50.76319434 640.17336197 5.75670147 651.99800446 -40.0546875 652.203125 C-41.07692413 652.20882507 -42.09916077 652.21452515 -43.15237427 652.22039795 C-45.30534859 652.22978124 -47.45833685 652.23635511 -49.61132812 652.24023438 C-52.83230089 652.24987223 -56.05261563 652.28093299 -59.2734375 652.3125 C-72.79003766 652.38172208 -85.69034551 651.31721989 -99 649 C-100.19496094 648.80647949 -101.38992188 648.61295898 -102.62109375 648.41357422 C-121.93576686 645.21352785 -142.08155361 641.07464166 -160 633 C-162.05719894 632.27641526 -164.11995281 631.56846303 -166.1875 630.875 C-194.72236641 620.73999459 -222.20798914 605.71681289 -246 587 C-247.10345577 586.15141853 -248.20765506 585.30380325 -249.3125 584.45703125 C-268.93845004 569.33825166 -287.8353096 552.68001956 -303 533 C-303.92099083 531.87603878 -304.84574199 530.75515246 -305.7734375 529.63671875 C-313.55868826 520.19920709 -320.38992608 510.28698911 -327 500 C-327.69609375 498.93652344 -328.3921875 497.87304688 -329.109375 496.77734375 C-339.49764665 480.48664503 -347.98711794 462.9810603 -355 445 C-355.29712891 444.2486377 -355.59425781 443.49727539 -355.90039062 442.72314453 C-365.93691845 417.17810395 -371.80033082 391.25087043 -375.56103516 364.13623047 C-375.92338583 361.54737796 -376.30707096 358.96333021 -376.69921875 356.37890625 C-379.86680656 334.03084529 -378.69496736 310.32545187 -376 288 C-375.90879883 287.20932129 -375.81759766 286.41864258 -375.72363281 285.60400391 C-372.67783758 260.05672843 -367.07108882 233.23807105 -357.046875 209.4921875 C-355.97598551 206.94283117 -354.98562562 204.36717816 -353.99291992 201.78662109 C-350.82299341 193.63002413 -347.10577591 185.83569234 -343.07519531 178.07226562 C-341.97600205 175.95374783 -340.89044275 173.8285557 -339.8046875 171.703125 C-330.76167858 154.15335562 -319.52656824 138.36118538 -307.75 122.5625 C-307.26684326 121.9123291 -306.78368652 121.2621582 -306.28588867 120.59228516 C-299.06564907 110.97106566 -299.06564907 110.97106566 -296 108 C-295.34 108 -294.68 108 -294 108 C-293.78408203 107.45956055 -293.56816406 106.91912109 -293.34570312 106.36230469 C-291.52721418 103.1700516 -289.05576916 100.77027139 -286.46875 98.203125 C-285.91819946 97.65066101 -285.36764893 97.09819702 -284.80041504 96.5289917 C-283.63274844 95.35996572 -282.46255875 94.19345521 -281.29003906 93.02929688 C-279.52700882 91.27684674 -277.7747414 89.51415932 -276.0234375 87.75 C-269.66094523 81.37949452 -263.19325429 75.44088303 -256 70 C-254.88949659 69.12904102 -253.77997542 68.25682671 -252.671875 67.3828125 C-240.83224217 58.23400531 -228.88149684 49.59394988 -215.91210938 42.10449219 C-214.64517236 41.37267106 -213.38080075 40.63638923 -212.11914062 39.89550781 C-191.22652126 27.63056598 -169.24596298 17.68108065 -145.91015625 11.125 C-142.41678181 10.13927527 -138.99187468 9.00380257 -135.5625 7.8125 C-130.41420947 6.07085909 -125.34456274 4.94315813 -120 4 C-118.85273438 3.77570313 -117.70546875 3.55140625 -116.5234375 3.3203125 C-108.95490657 1.84907502 -101.37181289 0.53998465 -93.75 -0.625 C-92.95932129 -0.7480249 -92.16864258 -0.8710498 -91.35400391 -0.99780273 C-61.78282097 -5.41245801 -29.46432751 -4.87296291 0 0 Z M-141 14 C-141.86705566 14.26006836 -142.73411133 14.52013672 -143.62744141 14.78808594 C-172.19994299 23.51961158 -200.42228521 35.88937567 -225 53 C-225.65871094 53.45197754 -226.31742188 53.90395508 -226.99609375 54.36962891 C-236.95683032 61.21192386 -246.65855652 68.33196703 -256 76 C-256.86044922 76.70382812 -256.86044922 76.70382812 -257.73828125 77.421875 C-273.09692228 90.09019975 -287.92401406 104.13674248 -300 120 C-301.05745899 121.32096485 -302.11760098 122.63978417 -303.1796875 123.95703125 C-311.89175187 134.83742626 -319.70170794 146.12829416 -327 158 C-327.75361816 159.21864746 -327.75361816 159.21864746 -328.52246094 160.46191406 C-353.25792264 200.87228774 -366.63539421 246.13690851 -372 293 C-372.1023999 293.78076904 -372.2047998 294.56153809 -372.31030273 295.3659668 C-376.55600386 330.54081863 -372.96606852 368.82993638 -364 403 C-363.71237793 404.09755615 -363.71237793 404.09755615 -363.41894531 405.21728516 C-362.08456102 410.19079494 -360.56981638 415.09647181 -359 420 C-358.70722168 420.92989746 -358.41444336 421.85979492 -358.11279297 422.81787109 C-354.38508603 434.60743127 -350.50398234 446.02595496 -344.94042969 457.08935547 C-343.89135202 459.22073705 -342.90016709 461.37393618 -341.9140625 463.53515625 C-331.45083317 486.37944743 -317.86070756 507.50896618 -302 527 C-301.57444824 527.52851562 -301.14889648 528.05703125 -300.71044922 528.6015625 C-293.16094776 537.89325661 -284.81053593 546.39674031 -276.375 554.875 C-275.84615204 555.40911499 -275.31730408 555.94322998 -274.77243042 556.49353027 C-267.85401713 563.46514873 -260.74446711 569.93547042 -253 576 C-252.27022949 576.5784668 -251.54045898 577.15693359 -250.78857422 577.75292969 C-220.6234745 601.51502631 -187.26598043 619.35548659 -151 632 C-150.31309082 632.2479834 -149.62618164 632.4959668 -148.91845703 632.75146484 C-97.53890283 651.24160233 -39.05705294 652.2104444 14 642 C14.95471191 641.82098145 15.90942383 641.64196289 16.89306641 641.45751953 C46.7702814 635.77217612 76.17782627 625.08026459 102.73828125 610.25878906 C105.06563251 608.96347137 107.4060507 607.69469123 109.75 606.4296875 C129.38615418 595.77371721 147.24799226 582.75461111 164 568 C164.92554688 567.18660156 165.85109375 566.37320313 166.8046875 565.53515625 C180.01516506 553.6603641 193.31249442 541.23531671 204 527 C204.71800781 526.06414063 205.43601562 525.12828125 206.17578125 524.1640625 C208.48071936 521.13062063 210.7458862 518.07137259 213 515 C213.4036377 514.45472656 213.80727539 513.90945313 214.22314453 513.34765625 C220.27074348 505.16130112 225.73992276 496.76183631 230.84521484 487.95776367 C231.67751343 486.54672723 232.5292689 485.14710348 233.39306641 483.75512695 C237.39218395 477.27650465 240.71375664 470.60963133 243.875 463.6875 C244.65435913 461.98823364 244.65435913 461.98823364 245.44946289 460.25463867 C252.25788463 445.23355162 258.19444582 429.78383648 263 414 C263.30993896 412.99211426 263.61987793 411.98422852 263.93920898 410.94580078 C266.42104677 402.61171384 268.19799778 394.33354507 269.5625 385.75 C269.66605804 385.10327332 269.76961609 384.45654663 269.87631226 383.79022217 C270.60927348 379.19712911 271.30742131 374.59934128 272 370 C272.16951172 368.92202148 272.33902344 367.84404297 272.51367188 366.73339844 C276.66586864 339.79580653 276.33853052 312.03811006 273.25 285 C273.13251907 283.9495903 273.13251907 283.9495903 273.01266479 282.87796021 C271.98232922 273.94463437 270.24511171 265.32241417 267.95458984 256.63867188 C267.16169187 253.61633135 266.43326418 250.59776023 265.76171875 247.546875 C263.04622746 235.3358518 259.47526566 223.6788152 255 212 C254.65420898 211.09572266 254.30841797 210.19144531 253.95214844 209.25976562 C249.34492536 197.3415306 244.20402545 185.92390325 237.97851562 174.76464844 C237.11684821 173.21072326 236.28275266 171.641577 235.453125 170.0703125 C223.22514579 146.91958781 207.40857344 125.83961339 189.55859375 106.74609375 C187.09350192 104.10035397 184.70083 101.40243923 182.3125 98.6875 C179.12803068 95.14294934 175.83903383 91.9517314 172.1953125 88.88671875 C169.57033847 86.63073573 167.07920318 84.25112439 164.5625 81.875 C157.15678547 75.00524101 149.12458631 68.98644224 141 63 C140.30213379 62.48260254 139.60426758 61.96520508 138.88525391 61.43212891 C128.04546496 53.4362293 116.77724608 46.5225507 105 40 C104.30471191 39.6071582 103.60942383 39.21431641 102.89306641 38.80957031 C77.0219394 24.20921815 48.29922589 13.94359384 19.25 7.9375 C18.00935791 7.68073486 16.76871582 7.42396973 15.49047852 7.15942383 C3.07183386 4.67695623 -9.39597864 3.15583654 -22 2 C-22.95914307 1.90501221 -23.91828613 1.81002441 -24.90649414 1.7121582 C-63.51223753 -1.88822821 -103.91678723 2.84972573 -141 14 Z " fill="#C9E4D2" transform="translate(561,185)"/>
<path d="M0 0 C33.99 0 67.98 0 103 0 C103 29.7 103 59.4 103 90 C98.919082 87.959541 95.83662429 85.46942979 92.4375 82.5 C91.81834717 81.96463623 91.19919434 81.42927246 90.5612793 80.87768555 C85.84496717 76.78285117 81.23714066 72.57979778 76.63671875 68.35546875 C74.0274059 66.02448261 71.3518718 63.81672813 68.625 61.625 C63.8293951 57.75845816 59.33121333 53.65148017 54.83862305 49.4440918 C50.62588877 45.52107276 46.23595547 41.88096281 41.74609375 38.27734375 C38.73680948 35.78173531 35.86061346 33.16234857 33 30.5 C28.42122186 26.23897803 23.68486648 22.25677217 18.80859375 18.3359375 C15.10526304 15.25583769 11.57394077 12.00844 8.05859375 8.71679688 C5.98901703 6.78575739 3.94935226 4.96342576 1.65234375 3.3046875 C1.10707031 2.87414062 0.56179688 2.44359375 0 2 C0 1.34 0 0.68 0 0 Z " fill="#fff" transform="translate(399,518)"/>
<path d="M0 0 C0 29.37 0 58.74 0 89 C-33.99 89 -67.98 89 -103 89 C-103 88.34 -103 87.68 -103 87 C-101.234375 85.44140625 -101.234375 85.44140625 -98.75 83.5625 C-94.68294994 80.396052 -90.82745484 77.07894701 -87.0625 73.5625 C-82.50631838 69.32373647 -77.81111271 65.33729605 -72.96484375 61.4296875 C-67.52859564 56.97468576 -62.2584575 52.32584117 -56.96142578 47.70703125 C-54.99773031 45.99802468 -53.02909541 44.29490251 -51.05859375 42.59375 C-45.57735727 37.86020476 -40.10695356 33.12457385 -34.75 28.25 C-30.51017171 24.40392027 -26.11036387 20.79037866 -21.66015625 17.19140625 C-19.17318687 15.14266936 -16.76659849 13.0336776 -14.375 10.875 C-2.27710843 0 -2.27710843 0 0 0 Z " fill="#fff" transform="translate(502,415)"/>
</svg>
